<svg id="Warstwa_1" data-name="Warstwa 1" xmlns="http://www.w3.org/2000/svg" xmlns:xlink="http://www.w3.org/1999/xlink" viewBox="0 0 609.99 446.1"><defs><style>.cls-1,.cls-18,.cls-25,.cls-9{fill:none;}.cls-2{fill:#381312;}.cls-3{clip-path:url(#clip-path);}.cls-4{fill:#f5e6db;}.cls-5{fill:#941a1d;}.cls-6{fill:#b0e0e7;}.cls-7{fill:#e2f3f5;}.cls-8{fill:#efcbb8;}.cls-9{stroke:#fff;stroke-width:0.44px;}.cls-18,.cls-25,.cls-9{stroke-miterlimit:10;}.cls-10{fill:#f2ded3;}.cls-11{fill:#eab296;opacity:0.6;}.cls-12{fill:#ef6947;}.cls-13{fill:url(#Gradient_bez_nazwy_45);}.cls-14{fill:#eab293;}.cls-15{fill:url(#Gradient_bez_nazwy_26);}.cls-16{fill:#f2cbb7;}.cls-17{fill:url(#Gradient_bez_nazwy_26-2);}.cls-18,.cls-25{stroke:#faf4ef;}.cls-18{stroke-width:0.31px;}.cls-19{fill:url(#Gradient_bez_nazwy_60);}.cls-20{fill:#fff;}.cls-21{fill:#96d3c2;}.cls-22{fill:#2f8c92;}.cls-23{fill:#338f93;}.cls-24{fill:#faf4ef;}.cls-25{stroke-width:0.29px;}.cls-26{fill:url(#Gradient_bez_nazwy_33);}.cls-27{fill:url(#Gradient_bez_nazwy_32);}.cls-28{fill:url(#Gradient_bez_nazwy_36);}.cls-29{fill:url(#Gradient_bez_nazwy_31);}.cls-30{fill:url(#Gradient_bez_nazwy_26-3);}.cls-31{fill:url(#Gradient_bez_nazwy_26-4);}</style><clipPath id="clip-path" transform="translate(-92.83 -48.08)"><path class="cls-1" d="M298.71,444.93l134.11,17.36c34.4,4.45,71.57,5.66,94.13-18.13,11.12-11.74,12.78-29.59,23.37-41.19,9.94-10.9,26.31-11,40.56-13.85,31.33-6.18,59.3-30.37,70.1-60.64s4-65.34-17.08-87.89c-15.59-16.69-38.49-26-61.8-26.14-20.79-.11-43.91,13.73-61.47-1.77-9.45-8.34-14.92-20.19-21.63-30.88-27.77-44.25-81.22-70.4-134.66-65.86S259.59,155.5,235.08,204.19c-11,21.84-19.47,44.72-29.75,66.87s-26.27,42.19-34.65,65.1c-7.5,20.49-5.79,43.94,5.37,61.72,9.92,15.8,26.42,26.43,44.09,32.78s36.61,8.83,55.4,11.27Z"/></clipPath><linearGradient id="Gradient_bez_nazwy_45" x1="449.17" y1="299.59" x2="449.17" y2="388.28" gradientUnits="userSpaceOnUse"><stop offset="0" stop-color="#165c5d"/><stop offset="0.69" stop-color="#429697"/></linearGradient><linearGradient id="Gradient_bez_nazwy_26" x1="440.86" y1="354.52" x2="469.39" y2="325.99" gradientUnits="userSpaceOnUse"><stop offset="0" stop-color="#371614"/><stop offset="0.17" stop-color="#551817"/><stop offset="0.38" stop-color="#70191a"/><stop offset="0.58" stop-color="#841a1c"/><stop offset="0.79" stop-color="#901b1e"/><stop offset="1" stop-color="#941b1e"/></linearGradient><linearGradient id="Gradient_bez_nazwy_26-2" x1="390.36" y1="333.07" x2="390.36" y2="348.57" xlink:href="#Gradient_bez_nazwy_26"/><linearGradient id="Gradient_bez_nazwy_60" x1="290.64" y1="243.27" x2="301.88" y2="243.27" gradientUnits="userSpaceOnUse"><stop offset="0" stop-color="#371614"/><stop offset="0.66" stop-color="#3d2623"/></linearGradient><linearGradient id="Gradient_bez_nazwy_33" x1="258" y1="454.48" x2="275.78" y2="454.48" gradientTransform="matrix(1.35, 0.59, -0.52, 1.19, 152.52, -381.67)" gradientUnits="userSpaceOnUse"><stop offset="0" stop-color="#338f92"/><stop offset="0.33" stop-color="#359193"/><stop offset="0.51" stop-color="#3d9697"/><stop offset="0.66" stop-color="#4ba09e"/><stop offset="0.78" stop-color="#5fada7"/><stop offset="0.9" stop-color="#77beb3"/><stop offset="1" stop-color="#96d3c2"/></linearGradient><linearGradient id="Gradient_bez_nazwy_32" x1="412.74" y1="309.08" x2="447.86" y2="278.98" gradientTransform="matrix(1.22, -0.19, 0.16, 1.04, -307.17, 87.88)" gradientUnits="userSpaceOnUse"><stop offset="0" stop-color="#338f92"/><stop offset="1" stop-color="#96d3c2"/></linearGradient><linearGradient id="Gradient_bez_nazwy_36" x1="-31.17" y1="521.19" x2="-10.08" y2="521.19" gradientTransform="matrix(-1.74, -0.29, -0.32, 1.91, 418.5, -684.06)" gradientUnits="userSpaceOnUse"><stop offset="0" stop-color="#96d3c2"/><stop offset="0.26" stop-color="#80c4b8"/><stop offset="0.8" stop-color="#499e9d"/><stop offset="1" stop-color="#338f92"/></linearGradient><linearGradient id="Gradient_bez_nazwy_31" x1="324.33" y1="436.86" x2="345.42" y2="436.86" gradientTransform="matrix(2.01, 0.42, -0.28, 1.36, -298.35, -415.33)" gradientUnits="userSpaceOnUse"><stop offset="0" stop-color="#96d3c2"/><stop offset="0.15" stop-color="#8fcebf"/><stop offset="0.35" stop-color="#7dc2b6"/><stop offset="0.6" stop-color="#5fada7"/><stop offset="0.87" stop-color="#359093"/><stop offset="0.88" stop-color="#338f92"/></linearGradient><linearGradient id="Gradient_bez_nazwy_26-3" x1="176.32" y1="331.12" x2="176.32" y2="295.32" xlink:href="#Gradient_bez_nazwy_26"/><linearGradient id="Gradient_bez_nazwy_26-4" x1="176.32" y1="296.37" x2="176.32" y2="292.45" xlink:href="#Gradient_bez_nazwy_26"/></defs><title>czyscioch ilustracja</title><path class="cls-2" d="M1611.67,68" transform="translate(-92.83 -48.08)"/><g class="cls-3"><rect class="cls-4" width="609.99" height="331.28"/><rect class="cls-5" y="330.41" width="609.99" height="115.69"/><rect class="cls-6" x="204.37" y="103.94" width="78.98" height="121.51"/><path class="cls-7" d="M329.54,235.86l1.14.67c8.55,5.15,11.62,13.12,19.95,18.37a7,7,0,0,0,4.36,1.31,5.37,5.37,0,0,0,4.66-3.54c2.77-10.53-1.68-23.7-2.51-34-1.12-14-2.38-28.06-3.49-42.09-.47-2.32-.92-4.64-1.5-6.92-5,12.52-.76,27.28-7.64,39.1-4.5-1.62-5.6-7.12-6.93-10.65-.67-1.8-1.93-9.47-4.87-9.78-7.66-.79-3.16,16-6.24,19.07l-9.55-15.5c-.85-1.37-2.17-2.93-4.46-2.72-2.68.25-4,2.63-4.47,4.5C303.38,213,310.31,225,329.54,235.86Z" transform="translate(-92.83 -48.08)"/><path class="cls-8" d="M297.19,152v121.5h79V152Zm69.87,56.19H341.24V161.13h25.82Zm-34.93-47.08v47.08H306.31V161.13Zm-25.82,56.2h25.82v47.08H306.31Zm34.93,47.08V217.33h25.82v47.08Z" transform="translate(-92.83 -48.08)"/><rect class="cls-9" x="206.99" y="101.31" width="78.98" height="121.51"/><rect class="cls-8" x="343.43" y="87.09" width="109.19" height="243.04"/><rect class="cls-10" x="361.55" y="222.33" width="72.96" height="88.79"/><rect class="cls-10" x="361.55" y="106.1" width="72.96" height="88.79"/><circle class="cls-10" cx="429.22" cy="208.61" r="5.28"/><path class="cls-8" d="M466,305.7c-.25.37-.51.74-.77,1.1-5.89,8.25-13.24,9.84-19.17,17.82a8.72,8.72,0,0,0-1.88,4.51c-.24,2.61.89,5.09,2.21,5.92,8.51,5.42,20.55,3.47,29.54,4.89,12.19,1.92,24.39,3.68,36.58,5.61,2,0,4.12,0,6.17-.11-9.84-8.26-23.19-7-32.09-17.18,2.17-4.59,7.06-4.56,10.32-5.23,1.65-.34,8.43,0,9.2-3.16,2-8.25-13.11-7.07-15.21-11.16l14.91-7a4.93,4.93,0,0,0,3.11-4.29,6.25,6.25,0,0,0-3.07-5.93C490,282,478.62,287,466,305.7Z" transform="translate(-92.83 -48.08)"/><rect class="cls-9" x="347.52" y="83" width="109.19" height="243.04"/><path class="cls-11" d="M442.77,359.14c-.16,2.92,2,4.7,1.94,7.54,0,2.24-1.56,4.24-1.59,6.57,0,1.77,1.74,3.81,1.53,5.36l-.7,5.28-.45.2a3.22,3.22,0,0,1,.11.52c0,.23.08.53.13.86l-.07.54h.15c.24,1.85.48,4.35.23,4.35h.63a4,4,0,0,0-.28.3l0,0c-1.6,1.95-4.42,6.24-1.81,8.42a6.68,6.68,0,0,0,3.52,1.21,28.09,28.09,0,0,0,10.25-.66c1.27-.32,2.69-.9,3.08-2.15a3.55,3.55,0,0,0,0-1.83,22.87,22.87,0,0,0-2.08-5.32h.22v-3.5a2.93,2.93,0,0,0-1.19-2.34c-.77-1.27-1.87-3-1.84-4l.11-2.93c.07-1.93,2.74-3.36,2.42-5.86-.25-1.94-1.43-4.21-2-6.13,0,0,.1-2.68.24-6.7H442.79C442.78,359,442.78,359.06,442.77,359.14Z" transform="translate(-92.83 -48.08)"/><polygon class="cls-11" points="386.18 310.83 385.62 309.76 385.62 310.83 386.18 310.83"/><path class="cls-11" d="M478.45,357.84l-.32-.62c-.13-18.15-.47-49.86-1.43-54.61V301.5c2-1.91,4.08-3.81,6.15-5.67a17.17,17.17,0,0,0,3.31-3.61c1.78-2.93,1.63-6.8,2.36-10.08.06-.29.39-2.07.74-3.7a3.63,3.63,0,0,0,2.6-1.68,1.17,1.17,0,0,0,0-.37q.06-.52.09-1.05c.07-1,.1-2.08.1-3.12,0-.19,0-.39,0-.58a46.16,46.16,0,0,0-.33-5.12,33.25,33.25,0,0,0-1.19-5.69,21.43,21.43,0,0,0-2.45-5.38,14.41,14.41,0,0,0-4.13-4.21,14,14,0,0,0-2.72-1.41,9.13,9.13,0,0,0-1.35-.41c1.29-1.61,2.36-3.09,2.94-3.88a22.32,22.32,0,0,0,3.63-7.5,4.31,4.31,0,0,0,1.31.4,8.08,8.08,0,0,0,5.91-1.89c1-.82-.1-3.37-.55-4.1-1.59-2.62-4.36-3.8-7-5-6.58-2.92-11.47-8.74-18.57-3.4-1.09.83-2,3.9-2.72,5.12a17.74,17.74,0,0,1-3.69,4.91s-4.54,3.56-.94,7.44c.38.41,2.28-.15,2.67-.31a.52.52,0,0,0,.13-.06,12.12,12.12,0,0,0-.1,1.59h-.05l-.09,0-.12-.68c-3,.47-5.7,1.91-8.62,2.66-2.61.66-5.42,1.18-7.6,2.88-2,1.57-3.42,4.47-4.88,6.54-.33.47-2.82,3.76-4.95,6.7-1.75,2.41-3.26,4.59-3.11,4.76l.18.2c-.1,1.31-3.72,4.71-4.53,5.74l-5,6.39c-1.2,1.53-2.27,2.78-2.5,4.8-.18,1.59,1.72,3.06,2.67,4.17,1.2,1.39,2.42,2.77,3.56,4.21,2.35,3,5.43,5.19,8.34,7.59a18.2,18.2,0,0,1,2.85,2.7c.94,1.2,1,3.06,2.94,3.1a3.16,3.16,0,0,0,.87-.13c-.63,5-1.07,10-1.39,15a151.19,151.19,0,0,0-.23,17.81c.21,3.8,1.17,7.51,1.69,11.27s0,6.84-.23,10.43h12.49c.35-9.71,1-27.31,1.23-34.61l1,1.91q.93,5.53,1.87,11.07,1,6.24,2.11,12.48c.5,2.94,1.4,5.83,1.59,8.82,0,.11,0,.22,0,.33h15.36ZM477,265.21l1.21,7.28.61,3.66.58.26a19.85,19.85,0,0,1-1.75,7.49,12.89,12.89,0,0,1-.81,1.34Zm-35.17,31.67a1.57,1.57,0,0,0,.21-.24h0A2.39,2.39,0,0,1,441.82,296.88Zm4.72-3.55a2.82,2.82,0,0,0-1.15-.16,1.46,1.46,0,0,0-.67.21l-4.61-8.81s-1.94-2.61-3.71,1.31l4.67,8.93a1.69,1.69,0,0,1-.7,0c-1.77-.38-2.93-1.92-3.85-3.36a27.4,27.4,0,0,0-3.28-4.57c-.73-.75-2.48-1.92-2.2-3,.68-2.66,2.82-3.71,4.63-4.79a18,18,0,0,0,5.44-5l.49.55,3.45-3.73,2.17-2.34Z" transform="translate(-92.83 -48.08)"/><rect class="cls-8" x="184.32" y="244.47" width="119.08" height="27.95"/><circle class="cls-12" cx="207.81" cy="258.44" r="3.04"/><circle class="cls-12" cx="279.9" cy="258.44" r="3.04"/><rect class="cls-8" x="184.32" y="273.33" width="119.08" height="27.95"/><circle class="cls-12" cx="207.81" cy="287.3" r="3.04"/><circle class="cls-12" cx="279.9" cy="287.3" r="3.04"/><rect class="cls-8" x="184.32" y="302.18" width="119.08" height="27.95"/><circle class="cls-12" cx="207.81" cy="316.16" r="3.04"/><circle class="cls-12" cx="279.9" cy="316.16" r="3.04"/><path class="cls-11" d="M366.18,246.67l2-10.7a10.14,10.14,0,0,1,1.7-4.64,11,11,0,0,1,4.41-2.74A69.45,69.45,0,0,0,394.75,215a7,7,0,0,0,2.38-3.55,7,7,0,0,0-.62-3.7,76.8,76.8,0,0,0-15.71-25.47c-6.49-7-17.23-12.86-25-7.41l2.92,8.64c-4.51-.61-9.35-.64-13.33,1.57s-6.7,7.24-5,11.45a6,6,0,0,1,7-1c-1.77,4.62-5.2,8.74-5.54,13.68s5.24,10.4,9.18,7.39l.59,6a52.73,52.73,0,0,0-23.88,23.72,36.15,36.15,0,0,0-18.91-10.92,4.83,4.83,0,0,0-2.27-7.12c1.27.41,1.34-4.22,1.14-4.78-10.62-3.38-8.2,28-7.37,33.86l8.7,0a34.81,34.81,0,0,0,1.51-9.45l6,8.7c.62-1.83,3.29-1.8,5-.89s3.3,2.37,5.23,2.26c1.73-.09,3.09-1.43,4.29-2.67l9.62-10.06c2.31,8.13,10.67,14.29,10.47,22.74-.08,3.09-1.34,6-2.36,8.93-11.35,32.65,7.39,68.41,3.51,102.76.79-7.18,5.17-12.94,8.28-19.22,6.15-12.43,3.36-26,7.61-38.77,2.7-8.06,8.71-14.92,10.09-23.31,1.69-10.25-3.92-20.27-10.45-28.34-1.58-2-3.28-4-3.86-6.41a15.88,15.88,0,0,1,.31-6.57Zm-59.47-15.39v0ZM326,242.83c-.34.16-.67.33-1,.5A6.75,6.75,0,0,1,326,242.83Zm15.34,1.41.88-1,0,0Zm20.3-22.18-.63-.94a6.85,6.85,0,0,0,1,.43C361.9,221.73,361.77,221.9,361.65,222.06Zm-1.71-38a1.51,1.51,0,0,0,.85-.41l.71-1.91c-.25.67,1.33,2.42,1.9,2.65,1.38.54.35-2.21.05-3.28-.25-.89,1.07-.57,1.33.11.82,2.14,2.57,3.39,3.07,2.23l.12,0c1.21.32,3.18.16,2.89-1.55h0c1.34,6.11,2.5,11.31,3.84,17.41l0,0h0l0,.12a.41.41,0,0,1,.05-.09,9,9,0,0,0,5.26.61l.13.25q1.28,2.61,2.57,5.22c.35.7,1.38,2,1.38,2.79,0,1.08,0,.7-1,1.43-3,2.15-6.78,3.67-10,5.57l-1.67,1a7.45,7.45,0,0,0,.29-2.07,7.71,7.71,0,0,0-1.74-4.91c2.9-5.18,1.61-12.13-1.26-17.28A17.42,17.42,0,0,0,359.94,184.08Z" transform="translate(-92.83 -48.08)"/><path class="cls-7" d="M359.32,399.51l-2.83.9c-21.7,6.77-48.74,8.07-70.6,14.62-3.11.93-6.25,2.11-6.91,3.7-.89,2.14,3.3,4.17,8.13,4.86,31.35,4.44,75.65,2.84,108.75,4,44.87,1.58,89.77,3,134.64,4.6,7.58,0,15.17,0,22.72-.08-36.2-6.78-85.33-5.71-118.1-14.1,8-3.76,26-3.74,38-4.29,6.08-.27,31,0,33.87-2.59,7.43-6.77-48.27-5.8-56-9.15l54.89-5.76c4.85-.51,10.62-1.42,11.42-3.52,1-2.47-5.69-4.12-11.29-4.87C447.9,380.1,405.93,384.16,359.32,399.51Z" transform="translate(-92.83 -48.08)"/><path class="cls-13" d="M466.51,378.87l.73-7.75s-.14-63.94-1.6-67.74l-32.77-3.79c-1.11,7-1.81,14-2.26,21a151.19,151.19,0,0,0-.23,17.81c.21,3.8,1.18,7.51,1.7,11.27s0,7-.25,10.65c-.17,2.92,2,4.71,1.93,7.54,0,2.24-1.56,4.24-1.58,6.57,0,1.77,1.73,3.81,1.53,5.36l-1,7.4,10.64.46v-.15l.14.75c0-.33,2.1-1.35,2.44-1.57-.57-1.19-2.42-3.66-2.37-5l.1-2.93c.07-1.93,2.75-3.36,2.42-5.86-.25-1.94-1.42-4.21-2-6.13l1.59-44.61,2.75,16.28L450.55,351c.5,2.94,1.4,5.83,1.6,8.82.19,2.84-1.38,5.09-1.36,7.83,0,3.82,3.72,6.62,4.31,10.23l.13.72-.35,3.47,1.54,3.57.19,1.15,11.51.45V381Z" transform="translate(-92.83 -48.08)"/><path class="cls-14" d="M452,244l-4.86,1.36s-2,23.85,13.67,10.79l-.61-13.22Z" transform="translate(-92.83 -48.08)"/><path class="cls-2" d="M480.83,267.73a33.63,33.63,0,0,0-1.18-5.69,21.43,21.43,0,0,0-2.45-5.38,14.44,14.44,0,0,0-4.14-4.21,13.75,13.75,0,0,0-2.72-1.41,9.49,9.49,0,0,0-1.49-.45c-.25-.06-.51-.1-.77-.14a1.49,1.49,0,0,0-1.11.29c-.18.2-.29.46-.48.66-.35.37-.69.79-1.07,1.12a25.12,25.12,0,0,1-5.63,3.78c-2.8,1.33-8.37,2.3-10.73-.36-2.5-2.84-1.65-10.78,3-10.78l-.3-1.82c-3,.47-5.71,1.91-8.62,2.66-2.61.66-5.42,1.18-7.6,2.88-2,1.57-3.43,4.47-4.88,6.54-.33.47-2.83,3.76-5,6.7l8.4,10,2.16-2.34-.91,33.41,30.38,2.43.3-39.19,1.22,7.29,13.89-.28c0-.19,0-.38,0-.58A46.16,46.16,0,0,0,480.83,267.73Z" transform="translate(-92.83 -48.08)"/><path class="cls-15" d="M425.45,287.09l57.12,109.13,2.83-3L429.17,285.78S427.22,283.18,425.45,287.09Z" transform="translate(-92.83 -48.08)"/><path class="cls-16" d="M468.57,276.45h0c-.23,3-.49,6-1.85,8.67a22.31,22.31,0,0,1-2,3q-8.78,11.75-18.19,23a2.48,2.48,0,0,1-.74.67,2.82,2.82,0,0,1-1.16.17,12.41,12.41,0,0,0-4.77,1,14,14,0,0,0-2.71,1.43c-.71.51-1.69,1.3-.53,1.85a5.37,5.37,0,0,0,3.43,0c-.82,1.16-1.69,2.59-1.16,3.91a3.7,3.7,0,0,0,2.5,1.89,12.63,12.63,0,0,0,3.66.6,2.53,2.53,0,0,0,1.25-.22,3,3,0,0,0,.84-.86,81.74,81.74,0,0,1,9.5-10.19c5-4.85,10.11-9.7,15.31-14.39a16.91,16.91,0,0,0,3.31-3.61c1.78-2.93,1.64-6.8,2.36-10.08.13-.57,1.2-6.61,1.67-6.6Z" transform="translate(-92.83 -48.08)"/><path class="cls-16" d="M422.79,267c0,1.27-3.71,4.76-4.53,5.81l-5,6.38c-1.2,1.53-2.26,2.78-2.5,4.8-.18,1.59,1.72,3.07,2.68,4.17,1.2,1.39,2.42,2.77,3.56,4.21,2.35,3,5.43,5.19,8.33,7.59a17.84,17.84,0,0,1,2.86,2.7c.93,1.2,1,3.06,2.94,3.1,1.48,0,2.94-1.16,3.89-2.19a13.22,13.22,0,0,0,2.34-3.06,5,5,0,0,0,.43-3.81,3.42,3.42,0,0,0-3.36-2.34c-1.54.1-2.44,2.59-3.56,3.71a2.75,2.75,0,0,0,.79-1.5c.16-1.39-1.46-.36-2.25-.53-1.76-.39-2.93-1.93-3.85-3.37a26.86,26.86,0,0,0-3.27-4.56c-.73-.76-2.49-1.93-2.2-3,.68-2.66,2.82-3.71,4.63-4.79,3.57-2.12,5.27-4.72,7-7.32a6.79,6.79,0,0,0,.62-1l-7.72-6.83Z" transform="translate(-92.83 -48.08)"/><path class="cls-12" d="M432.66,385.82c.26,1.55.77,5.76.45,5.76h13.48v-3.49c0-4.84-10.71-4.49-14-2.79C432.58,385.38,432.62,385.56,432.66,385.82Z" transform="translate(-92.83 -48.08)"/><path class="cls-12" d="M455.54,385.89a1.33,1.33,0,0,0-.14.19c-.88,1.35.07,4.09.11,5.6l13.37-.15a20.69,20.69,0,0,0,.08-5.61C467.57,383.42,457.16,383.91,455.54,385.89Z" transform="translate(-92.83 -48.08)"/><path class="cls-2" d="M433.43,391.92c-1.6,1.94-4.42,6.23-1.8,8.41a6.45,6.45,0,0,0,3.51,1.21,28.08,28.08,0,0,0,10.25-.66c1.27-.32,2.69-.9,3.09-2.15a3.66,3.66,0,0,0,0-1.83,24.56,24.56,0,0,0-2.28-5.73H435a2.11,2.11,0,0,0-.87.12,2.05,2.05,0,0,0-.69.59Z" transform="translate(-92.83 -48.08)"/><path class="cls-2" d="M455.71,394.31s-1.67,5.62-1.06,6.84c0,0,23.09,4.55,27,.91a5.63,5.63,0,0,0-3.64-5.32c-4-1.82-.61,0-.61,0l-9-5.32H455.86Z" transform="translate(-92.83 -48.08)"/><path class="cls-16" d="M457.23,233.46a22.43,22.43,0,0,0-3.55,4.56c-3.22,5.5-1.48,11.38,2.69,15.85,1.08,1.15,2.48,3,4.11,3.38,3.36.81,9.67-8.09,11.45-10.5,2.58-3.49,6.23-10.87,2-14.55a12.38,12.38,0,0,0-9.14-2.77A13.05,13.05,0,0,0,457.23,233.46Z" transform="translate(-92.83 -48.08)"/><path class="cls-2" d="M449.32,242.78c.38.4,2.29-.16,2.68-.31,2.81-1.13,2.09-4,3.85-5.85s2.89-1.16,2.07,1.3l.63,1.62s3.28-5,6.1-3.56a8.65,8.65,0,0,0,4.45,1.18c1-.07,2.64-1.13,3.52-.52,1.63,1.15,1.91,2.67,4.26,3a8.09,8.09,0,0,0,5.91-1.89c1-.82-.11-3.37-.56-4.1-1.59-2.62-4.35-3.79-7-5-6.57-2.92-11.46-8.74-18.56-3.4-1.1.83-2,3.9-2.73,5.13a17.65,17.65,0,0,1-3.69,4.9S445.73,238.89,449.32,242.78Z" transform="translate(-92.83 -48.08)"/><path class="cls-2" d="M467.26,273.71l.61,3.65s10.48,5,13.06.61a1.14,1.14,0,0,0,0-.37c0-.35.06-.7.08-1.05.08-1,.1-2.08.1-3.12Z" transform="translate(-92.83 -48.08)"/><path class="cls-2" d="M422.61,266.88l8,9,3.46-3.73-8.4-10C424,264.54,422.45,266.71,422.61,266.88Z" transform="translate(-92.83 -48.08)"/><polygon class="cls-12" points="381.47 340.55 386.67 366.47 409.92 356.46 393.38 333.07 381.34 338.26 381.47 340.55"/><polygon class="cls-17" points="393.38 333.07 381.34 338.26 381.47 340.55 383.08 348.57 399.38 341.55 393.38 333.07"/><rect class="cls-9" x="185.8" y="241.6" width="120.07" height="26.88"/><rect class="cls-9" x="185.8" y="270.67" width="120.07" height="26.88"/><rect class="cls-9" x="185.8" y="299.73" width="120.07" height="26.88"/><line class="cls-18" x1="386.79" y1="349.4" x2="389.71" y2="368.68"/><line class="cls-18" x1="397.6" y1="345.31" x2="408.99" y2="361.08"/><line class="cls-18" x1="392.34" y1="348.52" x2="400.52" y2="365.76"/><line class="cls-18" x1="392.05" y1="359.33" x2="394.68" y2="366.63"/><line class="cls-18" x1="401.98" y1="356.12" x2="405.2" y2="362.25"/><path class="cls-5" d="M366.16,202.47s2.83-7.55,15.78-6.91C381.94,195.56,374.63,206.24,366.16,202.47Z" transform="translate(-92.83 -48.08)"/><path class="cls-19" d="M298.19,235.88v-5.52h1.12v-4.17h-6.1v4.17h1.12v5.52c-2.15,2.19-3.69,7.93-3.69,14.67a36.33,36.33,0,0,0,1.24,9.79h8.76a36.33,36.33,0,0,0,1.24-9.79C301.88,243.81,300.34,238.07,298.19,235.88Z" transform="translate(-92.83 -48.08)"/><path class="cls-20" d="M348.81,182.79c-.15-.63-.26-1.17-.33-1.49a7.56,7.56,0,0,0-.37-1.61c-.22-.37-.78-.34-1-.87s.07-.7.14-1.1c.22-1.25,3.11.33,3.11.33-.79-4,2.27-1.11,2.27-1.11-.21-1.89,1.18-2.08,1.18-2.08,1.84-.19,2.91,2.83,2.91,2.83l.7-1.91c.55-1.39,3.11,1.48,3.47,2.27a10.14,10.14,0,0,1,.63,3.38,4.8,4.8,0,0,0,.31,1.54c.22.5.72.64.73,1.29,0,1.78-2.26.71-3.24.18.79,4-2,2.71-3.07-.15-.26-.69-1.58-1-1.33-.12.3,1.07,1.32,3.83-.05,3.28-.57-.22-2.15-2-1.9-2.64l-.71,1.9C350.38,188.35,349.34,185,348.81,182.79Z" transform="translate(-92.83 -48.08)"/><path class="cls-5" d="M307.92,259.56s-.95-8.76,9.58-13.69C317.5,245.87,319,254.38,307.92,259.56Z" transform="translate(-92.83 -48.08)"/><polygon class="cls-14" points="249.63 169.68 250.92 181.71 262.19 179.83 253.34 166.72 249.63 169.68"/><path class="cls-21" d="M343.39,226.06c1.13,1.82,3.78,2.33,5.93,1.77a17.43,17.43,0,0,0,5.69-3.24c3.07-2.23,6.29-4.28,9.57-6.21s7-3.42,10-5.57c1-.74,1-.36,1-1.43,0-.76-1-2.09-1.38-2.79l-2.58-5.22-5-10.08c-.91-1.85-1.85-3.79-1.74-5.83s1.64-4.17,3.79-4.29c7.86,9.17,15.73,18.59,20.39,29.55a2.28,2.28,0,0,1-.55,2.91c-7.3,7.3-16.5,14.37-26.52,17.62-.72.23-.87-.09-1.33.49a7.39,7.39,0,0,0-.42,2.3c-.28,1.52-.57,3-.86,4.56l-1.72,9.13-3.51,18.63a19.51,19.51,0,0,1-10.67,1.27c-1.64-8.14-4.54-16.78-9.84-23.38a136.2,136.2,0,0,1-13.5,14,3.79,3.79,0,0,1-1.75,1.06,3.9,3.9,0,0,1-2.58-.78,62.61,62.61,0,0,1-19.09-17.79c1.17-1.24,3.28-.94,5-.46a63.1,63.1,0,0,1,16.43,7.35c4-4.26,7-9.29,10.79-13.77S337.5,227.31,343.39,226.06Z" transform="translate(-92.83 -48.08)"/><polygon class="cls-2" points="237.43 348.64 262.24 348.32 260.91 338.33 250.26 338.95 237.43 348.64"/><path class="cls-4" d="M341,192.53a3.93,3.93,0,0,0-.77,1.95,19.34,19.34,0,0,1-1,3.74c-1.74,4.71-4.79,8.85-6,13.77-.44,1.76-.59,3.76.4,5.27s2.91,2.16,4.7,2.45a22.34,22.34,0,0,0,5.42.18,5.45,5.45,0,0,0,2.89-.9c2.33-1.8,3.6-6.43,4.53-9.13a39.09,39.09,0,0,0,2.21-12.26,5.13,5.13,0,0,0-.44-2.59,4.53,4.53,0,0,0-2.8-1.8,34.64,34.64,0,0,0-5.74-1.59C342.82,191.43,341.68,191.66,341,192.53Z" transform="translate(-92.83 -48.08)"/><path class="cls-5" d="M332.08,199.65c-.23-.41,3.13-1.87,3.43-1.92,4.13-.66,4.35,5,5.88,7.54a5.23,5.23,0,0,0,1.44,1.75c1.48.95,3.36,0,4.45,1.89,1.19,2.11-1.23,3.25-2.89,3.86-.57.2.95,3.34,1.13,3.58,2.91,3.83,10,2,13.26-.71,6.1-5.13,5-14.19,1.43-20.53-4.56-8.2-13.17-11.11-21.73-7.62C333.89,189.37,329,194.25,332.08,199.65Z" transform="translate(-92.83 -48.08)"/><path class="cls-22" d="M307.93,259.61,297.3,243.69c-1.54-2.31-4.56-1.38-5.19-4.28s-.1-6.06,2.33-8c.13,1.15-.09,4.32.58,5.21.42.55,2.58,1.32,2.87.48a20.53,20.53,0,0,0,.21-5.6c2.52,2.58,5.09,2.58,2.24,6.61l17.16,7.81S310.06,248.68,307.93,259.61Z" transform="translate(-92.83 -48.08)"/><path class="cls-23" d="M362.32,177.45c2.48,1.09,4.5,3.07,6.46,5L382,195.51a35.11,35.11,0,0,0-12,3.25,7.42,7.42,0,0,0-3.77,3.84c-1.36-6.22-2.53-11.48-3.9-17.7.4,1.81-1.64,2-2.87,1.66-2.29-.62-2.05-2.62-3.45-4.2a3.08,3.08,0,0,0,5-1,7.75,7.75,0,0,0-8,.52c.66-2.15.81-3.66,3-4.65a7.74,7.74,0,0,1,5.72-.1C361.86,177.25,362.1,177.35,362.32,177.45Z" transform="translate(-92.83 -48.08)"/><path class="cls-12" d="M342.69,270.37a8.27,8.27,0,0,0-.62,1.92c-3.42,14.23-6.53,28.94-5.41,43.68.87,11.5,4.29,22.64,5.89,34.06,1.72,12.18,1.37,24.56,1,36.86l9.81.75c3.74-14.15,3.75-29,4.06-43.66.16-8,.48-16.32,3.79-23.6,2.16-4.78,5.55-8.95,7.29-13.91,2.24-6.41,1.49-13.63-1-20s-6.52-11.86-10.91-16.95a5.09,5.09,0,0,0-2.14-1.7,5,5,0,0,0-2.27,0l-6.51,1.15C343.9,269.38,343.17,269.49,342.69,270.37Z" transform="translate(-92.83 -48.08)"/><path class="cls-12" d="M347.88,218s-2.63-5,.61-5.25l1.72.93s-.81-2.49.91-3.22a1.89,1.89,0,0,1,2.23.83s1-3.33,2.63-.31c0,0,1.62-2.4,2.53-1.67,0,0,1.52.42.31,1.77,0,0,2.63,1.35.3,2.6Z" transform="translate(-92.83 -48.08)"/><path class="cls-24" d="M341.38,226.69c-.13-.24,2-.63,2-.63s6,5.32,10.47-2l1.6-.78c-.19.09-.21,1.18-.25,1.39-.78,4.23-6.35,6.15-10,5.14a5.67,5.67,0,0,1-2.52-1.5C342.61,228.17,341.39,226.71,341.38,226.69Z" transform="translate(-92.83 -48.08)"/><path class="cls-5" d="M331.89,248.32l3.37-3.72s9.31,18.62,8.32,24.8Z" transform="translate(-92.83 -48.08)"/><path class="cls-5" d="M343.35,269.19s-15,24.05-9.26,45.75c0,0,9.57-1.71,3.19-10.46,0,0,9.87-4.68.91-11.55,0,0,8.81,1.4,3.19-12.65C341.38,280.28,350,274.66,343.35,269.19Z" transform="translate(-92.83 -48.08)"/><path class="cls-25" d="M344.22,269.59c6.7,3.31,1.34,16.4-5.07,12a1.24,1.24,0,0,1-.43-.45.88.88,0,0,1,.36-1,1.76,1.76,0,0,1,1.15-.21,4.87,4.87,0,0,1,3.3,2.08c2,2.7,3.08,6.76,1.25,9.82-1.27,2.13-5,2.51-6.87,1s.42-1.85,1.69-1.3a9.45,9.45,0,0,1,2.84,1.74c2.41,2.26,2.57,11.09-2.12,10.74a7.14,7.14,0,0,1-2.91-1.1c-.59-.33-1.29-.9-1.05-1.55s.93-.63,1.5-.53c6.57,1.22,5.28,13.78-2,11.52" transform="translate(-92.83 -48.08)"/><path class="cls-5" d="M343.34,266.43s-1.33,3.91.83,4.06l11.08-2.19a5.35,5.35,0,0,1-.48-2.88Z" transform="translate(-92.83 -48.08)"/><ellipse class="cls-5" cx="262.49" cy="170.78" rx="7.44" ry="7.65"/><path class="cls-18" d="M346.24,216c0-1.05.34-2.32,1.63-2.27,2,.06,1.08,2.57.25.6-.91-2.17,3-5.34,4.56-3.13.34.49.19,1.88-.64,1.52s-.18-1.6.06-2.06c.71-1.34,3.11-2.48,4-.62.11.23.1.59-.14.64-.82.18-.17-1.4,0-1.65,1.24-1.8,3.71-.24,3.21,1.74" transform="translate(-92.83 -48.08)"/><path class="cls-11" d="M316.48,294.33a25.83,25.83,0,0,1-2,6.19c-1.57,3.05-4.28,5.1-6.9,7.08-.8.61-1.56,1.18-2.29,1.78-4.34,3.58-8.1,6.95-10.14,11.95-.48,1.17-.87,2.36-1.25,3.51a26.4,26.4,0,0,1-2.9,6.66c-.39.59-.81,1.16-1.25,1.7.07-.25.13-.5.2-.74v0c.27-.36.55-.73.8-1.12a25.89,25.89,0,0,0,2.86-6.57c.38-1.16.78-2.36,1.26-3.54,2.07-5.07,5.86-8.47,10.24-12.08.73-.61,1.53-1.21,2.29-1.79,2.59-2,5.27-4,6.81-7a25.61,25.61,0,0,0,2-6.09,20.93,20.93,0,0,1,2.72-7.38,80.76,80.76,0,0,0-5,6.72c-2,3.07-3,6.9-5.39,9.69s-5.91,4.38-8.58,6.9a18.43,18.43,0,0,0-2.5,2.78c-1.11,1.62-1.07,2.58-2.88,3.35l-.33.14c.08-.26.15-.52.22-.78a12.33,12.33,0,0,0-.08-6.18,5.06,5.06,0,0,1-.31-1.94,4.09,4.09,0,0,1,.73-1.55,37.53,37.53,0,0,0,4.45-9.56c.89-2.88.93-6,2-8.8a28.49,28.49,0,0,1,2.61-5.17s2-2.23.83-1l-1.73,1.1a11.3,11.3,0,0,0-4.36,7.7c0,.4-.07.81-.1,1.22a7.38,7.38,0,0,1-1,4,6.94,6.94,0,0,1-2,1.63l-.35.22a21.09,21.09,0,0,0-9.39,17.5c0,.61,0,1.23,0,1.83a24.2,24.2,0,0,1,0,3.51,9,9,0,0,1-.25,1.35l-.52.46a8.13,8.13,0,0,0,.42-1.87,23.63,23.63,0,0,0,.05-3.47c0-.6-.05-1.23-.05-1.84A21.36,21.36,0,0,1,295,297l.34-.22a7,7,0,0,0,1.91-1.56,7.07,7.07,0,0,0,1-3.8c0-.41.06-.83.1-1.24a11.58,11.58,0,0,1,4.74-8.1l1.94-1.21c.75-1.06,1.55-2.08,2.38-3.05-1.76,2.06-4.69,3.38-6.69,5.24a18.48,18.48,0,0,0-5.52,9.93c-1.18,2-3.63,2.84-5.67,4a15.33,15.33,0,0,0-6.82,8.25c-.71,2.06-1.05,4.4-2.29,6.11a9.5,9.5,0,0,0,0-1.51c-.28-2.06-1.93-3.69-2.65-5.64-.3-.8-.44-1.64-.7-2.45a9.36,9.36,0,0,0-2.7-4.15,3.91,3.91,0,0,1-1-1.18,3.2,3.2,0,0,1-.15-1.38,29.55,29.55,0,0,0-.93-8.49c-.61-2.36-1.92-4.49-2.37-6.87a23.36,23.36,0,0,1-.36-4.68s.48-2.42.15-1.07l-.75,1.53a9,9,0,0,0,.21,7.19c.14.3.29.59.45.88a5.66,5.66,0,0,1,1,3.14,5.9,5.9,0,0,1-.71,2l-.15.3a16.8,16.8,0,0,0,.84,16.12c.26.41.54.82.81,1.21a19.11,19.11,0,0,1,1.48,2.4,5.06,5.06,0,0,1,.32,4.19,7.79,7.79,0,0,1-1.54,2.09c-.33.36-.67.73-1,1.11a6.71,6.71,0,0,0-.81,1.48c-.2.25-.39.5-.57.76a6.94,6.94,0,0,1,1.14-2.37,11.78,11.78,0,0,1,1-1.14,7.64,7.64,0,0,0,1.49-2,4.86,4.86,0,0,0-.33-4,17.48,17.48,0,0,0-1.45-2.37c-.28-.4-.56-.81-.82-1.23a17,17,0,0,1-.85-16.34l.15-.31a5.84,5.84,0,0,0,.69-1.92,5.68,5.68,0,0,0-.95-3c-.16-.29-.32-.59-.46-.88a9.26,9.26,0,0,1-.11-7.64l.86-1.7c.08-1.06.21-2.11.38-3.15-.37,2.2-1.88,4.42-2.5,6.59a14.7,14.7,0,0,0,.34,9.23c0,1.88-1.37,3.57-2.31,5.3a12.56,12.56,0,0,0-1.3,8.68c.46,2.06,1.47,4.15.79,6.21s-2.83,3.48-3.88,5.41a8.47,8.47,0,0,0-.88,3.87c0,.4,0,.8,0,1.2L258.9,316c-1.75-1.17-1.4-1.78-2.1-3.23A14.7,14.7,0,0,0,255,310c-2.12-2.62-5.48-4.9-7.21-7.61s-1.58-5.55-2.81-8.28a57.66,57.66,0,0,0-3.29-6.18,10.33,10.33,0,0,1,.64,5.81,12,12,0,0,0,.2,4.68c.74,2.5,3,4.79,5.24,7,.66.66,1.33,1.34,1.95,2,3.64,3.94,6.71,7.53,7.36,11.59a24.67,24.67,0,0,1,.26,2.76,13.59,13.59,0,0,0,1,5.32,17.21,17.21,0,0,0,4.26,5.62c.47.42,1,.83,1.47,1.21l0,.31c-.59-.43-1.15-.9-1.7-1.38a17.45,17.45,0,0,1-4.32-5.71,13.73,13.73,0,0,1-1.06-5.4,26.81,26.81,0,0,0-.25-2.74c-.64-4-3.69-7.56-7.3-11.47-.61-.65-1.25-1.3-1.94-2-2.24-2.24-4.55-4.56-5.31-7.12a12.18,12.18,0,0,1-.2-4.75c.18-2,.35-3.92-.78-6,0,1.51,0,3,.06,4.55.14,3.93-.5,8.16,1.29,12.1s5.06,7.69,7.37,11.59a21,21,0,0,1,2.61,6.59c.44,2.14-.7,3.89-.78,6a9.68,9.68,0,0,0,1,5.1,8.84,8.84,0,0,0,3.77,3.69c.81.39,1.6.73,2.36,1v3.95h.64l6.29,36.11h22.51L295,342.28h.65v-4.07h-.84c.26-.73.48-1.47.68-2.21.74-2.79.52-5.6,1.68-8.23a33.87,33.87,0,0,1,4.58-7.57c3.31-4.13,7.28-7.58,10.24-12.08s4-10.27,5.66-15.4c.63-2,1.24-4,1.79-6C317.71,289,317.11,291.6,316.48,294.33Z" transform="translate(-92.83 -48.08)"/><path class="cls-26" d="M281.86,335a14.49,14.49,0,0,1,1.1-3.08c.5-.93,1.22-1.76,1.66-2.72,1-2.26.41-5,.92-7.42.21-1,.6-1.95.86-2.93a11.45,11.45,0,0,0-.08-5.95A4.72,4.72,0,0,1,286,311a4,4,0,0,1,.73-1.49,35.56,35.56,0,0,0,4.45-9.2c.89-2.78.93-5.78,2-8.47a27.23,27.23,0,0,1,2.61-5l-.72.1.72-.1s2-2.14.83-1L294.89,287a10.82,10.82,0,0,0-4.36,7.41c0,.39-.07.78-.1,1.18a5.17,5.17,0,0,1-3,5.38l-.35.21A20.1,20.1,0,0,0,277.69,318c0,.58,0,1.18.05,1.76a22.46,22.46,0,0,1-.05,3.38,6.08,6.08,0,0,1-2.32,4.44,9.09,9.09,0,0,1-2.88,1.12,15.38,15.38,0,0,0-1.67.51c-4,1.54-5.74,6.08-6,9.81,0,.4,0,.79-.06,1.19a12.14,12.14,0,0,1-.58,3.94,6.62,6.62,0,0,1-2,2.5c-.29.26-.59.53-.88.82l-.27-.23c.29-.29.6-.57.9-.83a6.37,6.37,0,0,0,1.93-2.39,12,12,0,0,0,.56-3.85c0-.4,0-.8.06-1.19.34-5,2.65-8.72,6.18-10.07a17.48,17.48,0,0,1,1.7-.52,8.53,8.53,0,0,0,2.78-1.08,5.75,5.75,0,0,0,2.2-4.24,21.76,21.76,0,0,0,.05-3.33c0-.58-.05-1.18-.05-1.77a20.38,20.38,0,0,1,9.53-17.09l.34-.22a6.42,6.42,0,0,0,1.91-1.5,6.58,6.58,0,0,0,1-3.65c0-.4.06-.8.1-1.19a11.06,11.06,0,0,1,4.74-7.8h0l1.94-1.16c.75-1,1.55-2,2.38-2.94-1.76,2-4.69,3.25-6.69,5A17.55,17.55,0,0,0,287,297c-1.19,1.91-3.63,2.73-5.68,3.87a14.93,14.93,0,0,0-6.81,7.94c-.85,2.39-1.16,5.15-3.16,6.8s-5,1.69-7.32,3a9.88,9.88,0,0,0-3.34,3.34c-4,6.05-5.07,14.15-5.26,21.39a23.36,23.36,0,0,0,1,8.47,8.08,8.08,0,0,0,2,3.26c.77.71,2.66.95,3.15,1.48,3.25,3.51,8,1.9,10.64-.71C277.66,350.39,279.88,342.14,281.86,335Z" transform="translate(-92.83 -48.08)"/><path class="cls-27" d="M272.84,318.38a11.45,11.45,0,0,1-.59-2.56c-.06-.86.09-1.73,0-2.58-.28-2-1.93-3.55-2.65-5.42-.3-.77-.44-1.58-.7-2.36a9,9,0,0,0-2.7-4,3.63,3.63,0,0,1-1.05-1.13A2.93,2.93,0,0,1,265,299a27.47,27.47,0,0,0-.93-8.18c-.61-2.27-1.92-4.32-2.37-6.61a21.75,21.75,0,0,1-.36-4.51l-.47.39.47-.39s.48-2.33.15-1l-.75,1.48a8.36,8.36,0,0,0,.21,6.92q.21.42.45.84a5.31,5.31,0,0,1,1,3,5.54,5.54,0,0,1-.71,1.94l-.15.29a15.63,15.63,0,0,0,.84,15.51c.26.4.54.79.81,1.17a18.1,18.1,0,0,1,1.48,2.31,4.7,4.7,0,0,1,.32,4,7.48,7.48,0,0,1-1.54,2,13.84,13.84,0,0,0-1,1.07c-2.17,2.8-1.36,6.62.12,9.26.16.28.32.56.49.84a9.6,9.6,0,0,1,1.34,2.91,5,5,0,0,1-.31,2.57c-.09.31-.19.63-.26.94l-.29,0c.07-.33.17-.65.26-1a5,5,0,0,0,.31-2.46,9.44,9.44,0,0,0-1.32-2.85l-.49-.84c-2-3.49-2-7.05-.09-9.52a14.25,14.25,0,0,1,1-1.09,7.29,7.29,0,0,0,1.5-1.94,4.54,4.54,0,0,0-.33-3.84,17.45,17.45,0,0,0-1.45-2.27c-.28-.39-.56-.78-.82-1.19a15.82,15.82,0,0,1-.85-15.73l.15-.29a5.46,5.46,0,0,0,.68-1.85,5.21,5.21,0,0,0-.94-2.9c-.16-.28-.32-.56-.46-.85a8.6,8.6,0,0,1-.11-7.35h0l.86-1.64c.08-1,.21-2,.38-3-.37,2.12-1.88,4.25-2.5,6.35a13.64,13.64,0,0,0,.34,8.88c0,1.81-1.37,3.43-2.31,5.1a11.69,11.69,0,0,0-1.3,8.35c.46,2,1.47,4,.79,6s-2.83,3.35-3.88,5.21a7.87,7.87,0,0,0-.88,3.72c-.15,5.85,2.7,11.79,5.79,16.79a18.47,18.47,0,0,0,4.47,5.3,6.87,6.87,0,0,0,2.84,1.35c.87.15,2.31-.52,2.89-.38,3.87,1,6.53-2.2,7.24-5.12C276.72,330.65,274.62,324.09,272.84,318.38Z" transform="translate(-92.83 -48.08)"/><path class="cls-28" d="M269.23,333.77a41,41,0,0,1,7.3-8.57c3-2.78,6.34-4.25,10-5.74,1.81-.75,1.77-1.67,2.88-3.22a17.75,17.75,0,0,1,2.5-2.69c2.66-2.42,6.19-3.91,8.58-6.64s3.38-6.37,5.39-9.32a76.78,76.78,0,0,1,4.95-6.47,19.48,19.48,0,0,0-2.72,7.1,24.13,24.13,0,0,1-2,5.87c-1.54,2.86-4.22,4.81-6.81,6.7-.76.56-1.56,1.14-2.29,1.72-4.38,3.48-8.17,6.75-10.24,11.63-.48,1.14-.88,2.29-1.26,3.41a24.29,24.29,0,0,1-2.86,6.32,19.17,19.17,0,0,1-5.5,5.35,16.43,16.43,0,0,1-7,2.59l0,.33a16.78,16.78,0,0,0,7.1-2.64,19.64,19.64,0,0,0,5.59-5.43,25,25,0,0,0,2.9-6.41c.38-1.11.77-2.26,1.25-3.39,2-4.8,5.8-8,10.14-11.49.73-.58,1.49-1.13,2.29-1.72,2.62-1.91,5.33-3.88,6.9-6.81a24.16,24.16,0,0,0,2-6c.63-2.63,1.23-5.13,2.91-7.31-.55,1.94-1.16,3.85-1.79,5.76-1.62,4.93-2.74,10.58-5.66,14.83s-6.93,7.64-10.24,11.62a32.47,32.47,0,0,0-4.58,7.29c-1.16,2.53-.94,5.24-1.68,7.91a17,17,0,0,1-2.79,6,8,8,0,0,1-4.37,3.11c-11.93,2.36-15-6-15-6C264.66,340,268.47,335,269.23,333.77Z" transform="translate(-92.83 -48.08)"/><path class="cls-29" d="M265,334.48a30.78,30.78,0,0,0-5.15-8.14c-2.4-2.87-5.54-5-9-7.22-1.75-1.12-1.4-1.71-2.1-3.11a14.9,14.9,0,0,0-1.85-2.62c-2.12-2.51-5.48-4.71-7.21-7.33s-1.58-5.33-2.81-8a54.71,54.71,0,0,0-3.29-6,9.59,9.59,0,0,1,.64,5.59,11.16,11.16,0,0,0,.2,4.51c.74,2.4,3,4.61,5.24,6.74.66.64,1.33,1.29,1.95,1.93,3.64,3.79,6.71,7.25,7.36,11.15a23,23,0,0,1,.26,2.66,12.74,12.74,0,0,0,1,5.13,16.8,16.8,0,0,0,4.26,5.4,23.84,23.84,0,0,0,6.78,4.12l-.13.21a24.39,24.39,0,0,1-6.91-4.2,16.83,16.83,0,0,1-4.32-5.49,12.79,12.79,0,0,1-1.06-5.19,24.91,24.91,0,0,0-.25-2.65c-.64-3.84-3.69-7.27-7.3-11-.61-.63-1.25-1.26-1.94-1.92-2.24-2.15-4.55-4.39-5.31-6.85a11.52,11.52,0,0,1-.21-4.58c.19-1.93.36-3.77-.77-5.78,0,1.46,0,2.91.06,4.38.14,3.78-.5,7.85,1.29,11.64s5.06,7.41,7.37,11.16a19.86,19.86,0,0,1,2.61,6.34c.44,2.06-.7,3.75-.78,5.76a9,9,0,0,0,1,4.91,8.63,8.63,0,0,0,3.77,3.55c12.29,5.7,18.4,1.3,18.4,1.3C267.93,340.14,265.43,335.51,265,334.48Z" transform="translate(-92.83 -48.08)"/><polygon class="cls-30" points="187.4 331.12 164.89 331.12 158.41 295.32 194.22 295.32 187.4 331.12"/><rect class="cls-31" x="157.96" y="292.45" width="36.72" height="3.92"/></g></svg>