<?xml version="1.0" encoding="iso-8859-1"?>
<!-- Generator: Adobe Illustrator 23.0.1, SVG Export Plug-In . SVG Version: 6.00 Build 0)  -->
<svg version="1.1" id="Layer_1" xmlns="http://www.w3.org/2000/svg" xmlns:xlink="http://www.w3.org/1999/xlink" x="0px" y="0px"
	 viewBox="0 0 70 30" style="enable-background:new 0 0 70 30;" xml:space="preserve">
<g>
	<g>
		<g style="enable-background:new    ;">
			<path style="fill:#2C8E95;" d="M9.722,17.196c-0.88,0-1.572,0.312-2.076,0.935c-0.504,0.624-0.756,1.484-0.756,2.582
				c0,1.148,0.242,2.018,0.727,2.607c0.484,0.589,1.186,0.884,2.104,0.884c0.397,0,0.781-0.039,1.153-0.118s0.758-0.181,1.16-0.305
				v1.313c-0.735,0.277-1.567,0.416-2.499,0.416c-1.371,0-2.424-0.415-3.158-1.246c-0.734-0.83-1.102-2.019-1.102-3.564
				c0-0.974,0.179-1.826,0.535-2.557s0.872-1.289,1.547-1.679c0.675-0.389,1.467-0.583,2.377-0.583c0.957,0,1.841,0.201,2.652,0.602
				l-0.551,1.275c-0.316-0.149-0.65-0.281-1.002-0.394C10.48,17.253,10.11,17.196,9.722,17.196z"/>
			<path style="fill:#2C8E95;" d="M18.626,25.383h-5.375v-0.929l3.581-5.003h-3.363v-1.153h5.055v1.051l-3.504,4.881h3.607V25.383z"
				/>
			<path style="fill:#2C8E95;" d="M19.087,18.298h1.64l1.441,4.017c0.218,0.572,0.363,1.11,0.436,1.614h0.051
				c0.038-0.235,0.109-0.52,0.211-0.855c0.103-0.335,0.645-1.927,1.627-4.775h1.627l-3.03,8.026c-0.551,1.474-1.469,2.21-2.755,2.21
				c-0.333,0-0.658-0.036-0.974-0.108v-1.191c0.227,0.051,0.485,0.077,0.775,0.077c0.726,0,1.236-0.421,1.531-1.263l0.263-0.666
				L19.087,18.298z"/>
			<path style="fill:#2C8E95;" d="M31.957,23.365c0,0.691-0.252,1.223-0.756,1.592s-1.226,0.554-2.165,0.554
				c-0.944,0-1.702-0.143-2.274-0.429v-1.301c0.833,0.385,1.608,0.576,2.325,0.576c0.927,0,1.39-0.279,1.39-0.839
				c0-0.18-0.051-0.329-0.153-0.448c-0.103-0.12-0.271-0.243-0.506-0.372c-0.235-0.128-0.562-0.272-0.98-0.436
				c-0.816-0.315-1.368-0.632-1.656-0.948c-0.288-0.315-0.432-0.726-0.432-1.229c0-0.606,0.244-1.077,0.733-1.413
				c0.489-0.335,1.154-0.502,1.996-0.502c0.833,0,1.621,0.168,2.364,0.506l-0.487,1.134c-0.765-0.316-1.407-0.475-1.928-0.475
				c-0.794,0-1.191,0.227-1.191,0.68c0,0.222,0.104,0.41,0.311,0.563c0.207,0.154,0.659,0.365,1.355,0.634
				c0.585,0.227,1.01,0.434,1.275,0.622c0.265,0.188,0.461,0.404,0.589,0.65C31.893,22.729,31.957,23.023,31.957,23.365z
				 M28.408,17.433v-0.16c0.243-0.299,0.494-0.632,0.752-0.999c0.258-0.368,0.462-0.681,0.612-0.942h1.749v0.135
				c-0.222,0.26-0.554,0.596-0.996,1.008c-0.442,0.413-0.815,0.731-1.118,0.958H28.408z"/>
			<path style="fill:#2C8E95;" d="M36.441,25.511c-1.072,0-1.886-0.313-2.444-0.938c-0.557-0.625-0.836-1.523-0.836-2.693
				c0-1.191,0.292-2.107,0.875-2.748s1.425-0.961,2.526-0.961c0.748,0,1.42,0.139,2.02,0.416l-0.455,1.211
				c-0.637-0.248-1.162-0.372-1.576-0.372c-1.226,0-1.839,0.813-1.839,2.441c0,0.794,0.153,1.391,0.458,1.79
				c0.306,0.399,0.753,0.599,1.342,0.599c0.67,0,1.305-0.166,1.902-0.499v1.313c-0.268,0.157-0.555,0.271-0.861,0.339
				C37.248,25.477,36.877,25.511,36.441,25.511z"/>
			<path style="fill:#2C8E95;" d="M39.99,16.42c0-0.269,0.074-0.476,0.223-0.621c0.146-0.146,0.357-0.218,0.631-0.218
				c0.264,0,0.471,0.072,0.617,0.218c0.148,0.145,0.221,0.352,0.221,0.621c0,0.257-0.072,0.458-0.221,0.606
				c-0.146,0.146-0.354,0.221-0.617,0.221c-0.273,0-0.484-0.074-0.631-0.221C40.064,16.878,39.99,16.677,39.99,16.42z
				 M41.586,25.383H40.08v-7.085h1.506V25.383z"/>
			<path style="fill:#2C8E95;" d="M50.021,21.827c0,1.157-0.297,2.061-0.889,2.71c-0.594,0.649-1.422,0.974-2.48,0.974
				c-0.662,0-1.246-0.149-1.756-0.448c-0.508-0.299-0.898-0.729-1.172-1.288c-0.273-0.559-0.41-1.208-0.41-1.947
				c0-1.148,0.295-2.046,0.885-2.69s1.42-0.967,2.492-0.967c1.025,0,1.836,0.329,2.434,0.989S50.021,20.709,50.021,21.827z
				 M44.865,21.827c0,1.636,0.604,2.454,1.813,2.454c1.197,0,1.795-0.818,1.795-2.454c0-1.618-0.604-2.428-1.807-2.428
				c-0.633,0-1.09,0.209-1.375,0.628C45.008,20.446,44.865,21.046,44.865,21.827z"/>
			<path style="fill:#2C8E95;" d="M54.609,25.511c-1.072,0-1.887-0.313-2.443-0.938c-0.559-0.625-0.836-1.523-0.836-2.693
				c0-1.191,0.291-2.107,0.875-2.748c0.582-0.641,1.424-0.961,2.525-0.961c0.748,0,1.42,0.139,2.02,0.416l-0.455,1.211
				c-0.637-0.248-1.162-0.372-1.576-0.372c-1.227,0-1.838,0.813-1.838,2.441c0,0.794,0.152,1.391,0.457,1.79
				s0.752,0.599,1.342,0.599c0.67,0,1.305-0.166,1.902-0.499v1.313c-0.268,0.157-0.555,0.271-0.861,0.339
				C55.416,25.477,55.045,25.511,54.609,25.511z"/>
			<path style="fill:#2C8E95;" d="M64.482,25.383h-1.512v-4.356c0-0.546-0.111-0.954-0.33-1.224
				c-0.221-0.269-0.57-0.403-1.049-0.403c-0.631,0-1.096,0.189-1.393,0.567s-0.445,1.011-0.445,1.899v3.517h-1.506v-9.968h1.506
				v2.53c0,0.405-0.025,0.839-0.076,1.301h0.096c0.205-0.342,0.49-0.606,0.855-0.795c0.365-0.188,0.791-0.281,1.277-0.281
				c1.717,0,2.576,0.864,2.576,2.594V25.383z"/>
		</g>
	</g>
	<g>
		<g>
			<path style="fill:#2C8E95;" d="M44.82,9.317c0,0-2.56,0.855-7.049-2.33c0,0-4.833-3.754-9.833-2.101
				c0.766-0.683,6.09-5.318,10.99-3.587c0.511,0.177,1.048,0.438,1.595,0.819c0.344,0.235,0.693,0.501,1.038,0.819
				c1.955,1.783,2.711,4.025,3.029,5.422c0,0-3.863-8.185-12.617-5.172C31.974,3.181,39.591,0.454,44.82,9.317z"/>
			<path style="fill:#2C8E95;" d="M44.794,9.515c0,0-3.113,1.877-7.633-1.449c0,0-10.485-6.694-11.981,2.002
				c0,0,2.643-4.52,9.082-1.319l2.304,1.022C36.567,9.771,40.446,12.117,44.794,9.515z"/>
		</g>
	</g>
</g>
<g>
</g>
<g>
</g>
<g>
</g>
<g>
</g>
<g>
</g>
<g>
</g>
<g>
</g>
<g>
</g>
<g>
</g>
<g>
</g>
<g>
</g>
<g>
</g>
<g>
</g>
<g>
</g>
<g>
</g>
</svg>
