<?xml version="1.0" encoding="utf-8"?>
<!-- Generator: Adobe Illustrator 23.0.1, SVG Export Plug-In . SVG Version: 6.00 Build 0)  -->
<svg version="1.1" xmlns="http://www.w3.org/2000/svg" xmlns:xlink="http://www.w3.org/1999/xlink" x="0px" y="0px"
	 viewBox="0 0 50 50" style="enable-background:new 0 0 50 50;" xml:space="preserve">
<style type="text/css">
	.st0{fill:#909090;}
</style>
<g id="Layer_1">
	<g>
		<g>
			<path class="st0" d="M30.1,31.9l-4.8-3.4c-0.2-0.1-0.4-0.1-0.6,0l-4.8,3.4c-0.1,0.1-0.2,0.2-0.2,0.4v7.3c0,0.3,0.2,0.5,0.5,0.5
				h9.7c0.3,0,0.5-0.2,0.5-0.5v-7.3C30.3,32.1,30.2,32,30.1,31.9L30.1,31.9z M24,39v-3.9H26V39H24z M29.4,39h-2.4v-4.4
				c0-0.3-0.2-0.5-0.5-0.5h-2.9c-0.3,0-0.5,0.2-0.5,0.5V39h-2.4v-6.5l4.4-3l4.4,3V39z"/>
			<path class="st0" d="M25.5,27.4V25c0-0.3-0.2-0.5-0.5-0.5s-0.5,0.2-0.5,0.5v2.4c0,0.3,0.2,0.5,0.5,0.5S25.5,27.7,25.5,27.4
				L25.5,27.4z"/>
			<path class="st0" d="M39.5,12.9H29.4v-0.5c0-0.3-0.2-0.5-0.5-0.5h-1v-1.5c0-0.3-0.2-0.5-0.5-0.5h-4.8c-0.3,0-0.5,0.2-0.5,0.5v1.5
				h-1c-0.3,0-0.5,0.2-0.5,0.5v0.5H10.5c-0.3,0-0.5,0.2-0.5,0.5v1.5c0,0.3,0.2,0.5,0.5,0.5h10.2v0.5c0,0.3,0.2,0.5,0.5,0.5h1v1.5h0
				c0,0.1,0,0.1,0,0.2l1,2.9c0.1,0.2,0.3,0.3,0.5,0.3v1.5c0,0.1,0.1,0.3,0.1,0.3l1,1C24.8,24,24.9,24,25,24s0.3-0.1,0.3-0.1l1-1
				c0.1-0.1,0.1-0.2,0.1-0.3v-1.5c0.2,0,0.4-0.1,0.5-0.3l1-2.9c0,0,0-0.1,0-0.2h0v-1.5h1c0.3,0,0.5-0.2,0.5-0.5v-0.5h10.2
				c0.3,0,0.5-0.2,0.5-0.5v-1.5C40,13.1,39.8,12.9,39.5,12.9L39.5,12.9z M20.6,14.4H11v-0.5h9.7V14.4z M22.1,15.3h-0.5v-2.4h0.5
				V15.3z M25.5,22.4L25,22.9l-0.5-0.5v-1.3h1C25.5,21.1,25.5,22.4,25.5,22.4z M26.1,20.2h-2.2l-0.6-1.9h3.5L26.1,20.2z M26.9,17.3
				h-3.9V11h3.9V17.3z M28.4,15.3h-0.5v-2.4h0.5V15.3z M39,14.4h-9.7v-0.5H39V14.4z"/>
			<path class="st0" d="M24,16.3H26c0.3,0,0.5-0.2,0.5-0.5v-3.4c0-0.3-0.2-0.5-0.5-0.5H24c-0.3,0-0.5,0.2-0.5,0.5v3.4
				C23.5,16.1,23.8,16.3,24,16.3L24,16.3z M24.5,12.9h1v2.4h-1V12.9z"/>
		</g>
	</g>
</g>
<g id="Layer_2">
</g>
<g id="Layer_3">
</g>
</svg>
