<?xml version="1.0" encoding="utf-8"?>
<!-- Generator: Adobe Illustrator 23.0.1, SVG Export Plug-In . SVG Version: 6.00 Build 0)  -->
<svg version="1.1" xmlns="http://www.w3.org/2000/svg" xmlns:xlink="http://www.w3.org/1999/xlink" x="0px" y="0px"
	 viewBox="0 0 50 50" style="enable-background:new 0 0 50 50;" xml:space="preserve">
<style type="text/css">
	.st0{fill:#909090;}
	.st1{clip-path:url(#SVGID_2_);fill:#909090;}
	.st2{clip-path:url(#SVGID_4_);fill:#909090;}
</style>
<g id="Layer_1">
	<g>
		<g>
			<path class="st0" d="M31.7,27.6c-0.2,0-0.4,0.2-0.4,0.4s0.2,0.4,0.4,0.4h2.3c0.2,0,0.4-0.2,0.4-0.4c0-0.2-0.2-0.4-0.4-0.4H31.7z"
				/>
			<g>
				<g>
					<g>
						<defs>
							<rect id="SVGID_1_" x="10" y="10.5" width="29.9" height="29"/>
						</defs>
						<clipPath id="SVGID_2_">
							<use xlink:href="#SVGID_1_"  style="overflow:visible;"/>
						</clipPath>
						<path class="st1" d="M31.7,35h2.3c0.2,0,0.4-0.2,0.4-0.4c0-0.2-0.2-0.4-0.4-0.4h-2.3c-0.2,0-0.4,0.2-0.4,0.4
							C31.3,34.8,31.5,35,31.7,35L31.7,35z"/>
					</g>
				</g>
				<g>
					<g>
						<defs>
							<rect id="SVGID_3_" x="10" y="10.5" width="29.9" height="29"/>
						</defs>
						<clipPath id="SVGID_4_">
							<use xlink:href="#SVGID_3_"  style="overflow:visible;"/>
						</clipPath>
						<path class="st2" d="M39,23.3H26.2v-0.1c0-0.4-0.1-0.9-0.2-1.3h3.1c0,0,0,0,0,0c0.5,0,1-0.5,1-1v-9.4c0-0.6-0.5-1-1-1h-16
							c-0.6,0-1,0.5-1,1V21c0,0.5,0.4,1,1,1c0,0,0,0,0,0h3.1c-0.1,0.4-0.2,0.8-0.2,1.3v0.1H11c-0.6,0-1,0.5-1,1v1.1c0,0.6,0.5,1,1,1
							h1v12.1c0,0.5,0.4,0.9,0.9,0.9h0.9c0.5,0,0.9-0.4,0.9-0.9V26.4h1.4v0.8c0,1.4,1.2,2.6,2.6,2.6h2v1.3h-3.9
							c-0.5,0-0.9,0.4-0.9,0.9c0,1,0.8,1.9,1.9,1.9h3v3.2h-1.4c-0.4,0-0.8,0.2-1.1,0.5l-1,1.1c-0.2,0.2-0.1,0.5,0,0.6
							c0.2,0.2,0.5,0.2,0.6,0l1-1.1c0.1-0.1,0.3-0.2,0.4-0.2h1.4v1c0,0.2,0.2,0.4,0.4,0.4c0.2,0,0.4-0.2,0.4-0.4v-1h1.4
							c0.2,0,0.3,0.1,0.4,0.2l1,1.1c0.2,0.2,0.4,0.2,0.6,0c0.2-0.2,0.2-0.4,0-0.6l-1-1.1c-0.3-0.3-0.7-0.5-1.1-0.5h-1.4v-3.2h3
							c1,0,1.9-0.8,1.9-1.9c0-0.5-0.4-0.9-0.9-0.9h-3.9v-1.3h2c1.4,0,2.6-1.2,2.6-2.6v-0.8h1.7v12.1c0,0.5,0.4,0.9,0.9,0.9h8.3
							c0.5,0,0.9-0.4,0.9-0.9v-8.3c0-0.2-0.2-0.4-0.4-0.4c-0.2,0-0.4,0.2-0.4,0.4v1.8h-8.4v-5.7h8.4v1.8c0,0.2,0.2,0.4,0.4,0.4
							c0.2,0,0.4-0.2,0.4-0.4v-1.8h1c0.6,0,1-0.5,1-1v-1.1C40,23.8,39.5,23.3,39,23.3L39,23.3z M25.5,32C25.5,32,25.6,32,25.5,32
							c0,0.6-0.4,1-1,1h-6.8c-0.5,0-1-0.4-1-1c0,0,0,0,0,0H25.5z M37.1,32.9v5.6c0,0,0,0,0,0h-8.3c0,0,0,0,0,0v-5.6H37.1L37.1,32.9z
							 M13.2,21.1C13.1,21.1,13,21,13,21v-1.1h3.6c0.2,0,0.4-0.2,0.4-0.4c0-0.2-0.2-0.4-0.4-0.4H13v-7.4c0-0.1,0.1-0.1,0.1-0.1h16
							c0.1,0,0.1,0.1,0.1,0.1V19h-3.6c-0.2,0-0.4,0.2-0.4,0.4c0,0.2,0.2,0.4,0.4,0.4h3.6V21c0,0.1-0.1,0.1-0.1,0.1h-3.5
							c-0.8-1.7-2.5-2.9-4.5-2.9s-3.7,1.2-4.5,2.9H13.2L13.2,21.1z M13.9,38.5C13.9,38.6,13.9,38.6,13.9,38.5l-0.9,0c0,0,0,0,0,0
							V26.4h1C13.9,26.4,13.9,38.5,13.9,38.5z M11,25.5c-0.1,0-0.1-0.1-0.1-0.1v-1.1c0-0.1,0.1-0.1,0.1-0.1h5.1v1.3L11,25.5L11,25.5
							z M25.3,27.2c0,1-0.8,1.7-1.7,1.7h-4.8c-1,0-1.7-0.8-1.7-1.7v-3.9c0-2.3,1.9-4.1,4.1-4.1c2.3,0,4.1,1.9,4.1,4.1
							C25.3,23.3,25.3,27.2,25.3,27.2z M39.1,25.4c0,0.1-0.1,0.1-0.1,0.1H26.2v-1.3H39c0.1,0,0.1,0.1,0.1,0.1L39.1,25.4L39.1,25.4z"
							/>
					</g>
				</g>
			</g>
		</g>
	</g>
</g>
<g id="Layer_2">
</g>
</svg>
