<?xml version="1.0" encoding="utf-8"?>
<!-- Generator: Adobe Illustrator 23.0.1, SVG Export Plug-In . SVG Version: 6.00 Build 0)  -->
<svg version="1.1" xmlns="http://www.w3.org/2000/svg" xmlns:xlink="http://www.w3.org/1999/xlink" x="0px" y="0px"
	 viewBox="0 0 50 50" style="enable-background:new 0 0 50 50;" xml:space="preserve">
<style type="text/css">
	.st0{fill:#909090;}
</style>
<g id="Layer_1">
	<g>
		<g>
			<path class="st0" d="M37.6,38.5h-0.5V13.9c0-0.3-0.2-0.5-0.5-0.5h-2.9V11c0-0.3-0.2-0.5-0.5-0.5H22.6c-0.3,0-0.5,0.2-0.5,0.5v2.4
				h-2.9c-0.3,0-0.5,0.2-0.5,0.5v24.6h-3.4v-3.4c1.3-0.2,2.4-1.2,2.8-2.5c0.4-1.3-0.1-2.7-1.2-3.5c0.4-0.7,0.4-1.7,0-2.4
				c-0.4-0.7-1.2-1.2-2.1-1.2s-1.7,0.5-2.1,1.2c-0.4,0.7-0.4,1.7,0,2.4c-1.1,0.8-1.5,2.2-1.2,3.5c0.4,1.3,1.4,2.3,2.8,2.5v1
				l-0.6-0.6c-0.2-0.2-0.5-0.2-0.7,0s-0.2,0.5,0,0.7l1.2,1.2c0,0,0.1,0.1,0.1,0.1v1h-3.9c-0.3,0-0.5,0.2-0.5,0.5s0.2,0.5,0.5,0.5
				h27.1c0.3,0,0.5-0.2,0.5-0.5S37.8,38.5,37.6,38.5L37.6,38.5z M14.9,30.8c-0.3,0-0.5,0.2-0.5,0.5v2.9c-1-0.2-1.8-1-1.9-2
				c-0.2-1,0.3-2,1.2-2.5c0.1-0.1,0.2-0.2,0.2-0.3s0-0.3-0.1-0.4c-0.4-0.4-0.5-1-0.3-1.6s0.8-0.9,1.3-0.9c0.6,0,1.1,0.3,1.3,0.9
				c0.2,0.5,0.1,1.1-0.3,1.6c-0.1,0.1-0.1,0.3-0.1,0.4c0,0.1,0.1,0.3,0.2,0.3c0.9,0.5,1.4,1.5,1.2,2.5s-0.9,1.8-1.9,2v-2.9
				C15.3,31,15.1,30.8,14.9,30.8L14.9,30.8z M23.1,11.5h9.7v1.9h-9.7C23.1,13.4,23.1,11.5,23.1,11.5z M27.4,38.5H26v-5.8h1.5V38.5z
				 M29.8,38.5h-1.5v-5.8h1.5V38.5z M36.1,38.5h-5.3v-6.3c0-0.3-0.2-0.5-0.5-0.5h-4.8c-0.3,0-0.5,0.2-0.5,0.5v6.3h-5.3V14.4h16.4
				V38.5z"/>
			<path class="st0" d="M39.5,38.5H39c-0.3,0-0.5,0.2-0.5,0.5s0.2,0.5,0.5,0.5h0.5c0.3,0,0.5-0.2,0.5-0.5S39.8,38.5,39.5,38.5
				L39.5,38.5z"/>
			<path class="st0" d="M29.8,26H26c-0.3,0-0.5,0.2-0.5,0.5v3.9c0,0.3,0.2,0.5,0.5,0.5h3.9c0.3,0,0.5-0.2,0.5-0.5v-3.9
				C30.3,26.2,30.1,26,29.8,26L29.8,26z M29.4,29.8h-2.9v-2.9h2.9V29.8z"/>
			<path class="st0" d="M24.5,26h-3.9c-0.3,0-0.5,0.2-0.5,0.5v3.9c0,0.3,0.2,0.5,0.5,0.5h3.9c0.3,0,0.5-0.2,0.5-0.5v-3.9
				C25,26.2,24.8,26,24.5,26L24.5,26z M24,29.8h-2.9v-2.9H24V29.8z"/>
			<path class="st0" d="M35.2,26h-3.9c-0.3,0-0.5,0.2-0.5,0.5v3.9c0,0.3,0.2,0.5,0.5,0.5h3.9c0.3,0,0.5-0.2,0.5-0.5v-3.9
				C35.6,26.2,35.4,26,35.2,26L35.2,26z M34.7,29.8h-2.9v-2.9h2.9V29.8z"/>
			<path class="st0" d="M29.8,20.6H26c-0.3,0-0.5,0.2-0.5,0.5V25c0,0.3,0.2,0.5,0.5,0.5h3.9c0.3,0,0.5-0.2,0.5-0.5v-3.9
				C30.3,20.9,30.1,20.6,29.8,20.6L29.8,20.6z M29.4,24.5h-2.9v-2.9h2.9V24.5z"/>
			<path class="st0" d="M24.5,20.6h-3.9c-0.3,0-0.5,0.2-0.5,0.5V25c0,0.3,0.2,0.5,0.5,0.5h3.9c0.3,0,0.5-0.2,0.5-0.5v-3.9
				C25,20.9,24.8,20.6,24.5,20.6L24.5,20.6z M24,24.5h-2.9v-2.9H24V24.5z"/>
			<path class="st0" d="M35.2,20.6h-3.9c-0.3,0-0.5,0.2-0.5,0.5V25c0,0.3,0.2,0.5,0.5,0.5h3.9c0.3,0,0.5-0.2,0.5-0.5v-3.9
				C35.6,20.9,35.4,20.6,35.2,20.6L35.2,20.6z M34.7,24.5h-2.9v-2.9h2.9V24.5z"/>
			<path class="st0" d="M29.8,15.3H26c-0.3,0-0.5,0.2-0.5,0.5v3.9c0,0.3,0.2,0.5,0.5,0.5h3.9c0.3,0,0.5-0.2,0.5-0.5v-3.9
				C30.3,15.6,30.1,15.3,29.8,15.3L29.8,15.3z M29.4,19.2h-2.9v-2.9h2.9V19.2z"/>
			<path class="st0" d="M24.5,15.3h-3.9c-0.3,0-0.5,0.2-0.5,0.5v3.9c0,0.3,0.2,0.5,0.5,0.5h3.9c0.3,0,0.5-0.2,0.5-0.5v-3.9
				C25,15.6,24.8,15.3,24.5,15.3L24.5,15.3z M24,19.2h-2.9v-2.9H24V19.2z"/>
			<path class="st0" d="M30.8,15.8v3.9c0,0.3,0.2,0.5,0.5,0.5h3.9c0.3,0,0.5-0.2,0.5-0.5v-3.9c0-0.3-0.2-0.5-0.5-0.5h-3.9
				C31,15.3,30.8,15.6,30.8,15.8L30.8,15.8z M31.8,16.3h2.9v2.9h-2.9V16.3z"/>
			<path class="st0" d="M15.3,29.4c0-0.3-0.2-0.5-0.5-0.5s-0.5,0.2-0.5,0.5v0.5c0,0.3,0.2,0.5,0.5,0.5s0.5-0.2,0.5-0.5V29.4z"/>
		</g>
	</g>
</g>
<g id="Layer_2">
</g>
</svg>
