<?xml version="1.0" encoding="utf-8"?>
<!-- Generator: Adobe Illustrator 23.0.1, SVG Export Plug-In . SVG Version: 6.00 Build 0)  -->
<svg version="1.1" id="Layer_1" xmlns="http://www.w3.org/2000/svg" xmlns:xlink="http://www.w3.org/1999/xlink" x="0px" y="0px"
	 viewBox="0 0 50 50" style="enable-background:new 0 0 50 50;" xml:space="preserve">
<style type="text/css">
	.st0{clip-path:url(#SVGID_2_);fill:#909090;}
	.st1{fill:#909090;}
</style>
<g>
	<g>
		<g>
			<g>
				<g>
					<defs>
						<rect id="SVGID_1_" x="9.9" y="11" width="30.2" height="28"/>
					</defs>
					<clipPath id="SVGID_2_">
						<use xlink:href="#SVGID_1_"  style="overflow:visible;"/>
					</clipPath>
					<path class="st0" d="M39.9,37.9l-3.8-3.8c-0.4-0.4-1-0.7-1.6-0.8v-7.6c0.1,0,0.2,0,0.4,0c1.2,0,2.3-0.5,3.2-1.3
						c1.1-1.1,1.5-2.6,1.2-4.1c0-0.2-0.2-0.4-0.4-0.4c-1.5-0.3-3.1,0.1-4.1,1.2c0,0-0.1,0.1-0.1,0.1V18c0.9-0.7,1.4-1.8,1.4-2.9
						c0-1.3-0.6-2.4-1.7-3.1c-0.2-0.1-0.4-0.1-0.6,0c-1.1,0.7-1.7,1.8-1.7,3.1c0,1.2,0.5,2.2,1.4,2.9v0.8c-1-1-2.3-1.4-3.7-1.1
						c-0.2,0-0.4,0.2-0.4,0.4c-0.3,1.3,0.1,2.7,1.1,3.7c0.8,0.8,1.8,1.2,2.8,1.2c0.1,0,0.2,0,0.3,0v2.4c-0.1-0.1-0.2-0.2-0.2-0.3
						c-1.2-1.2-2.8-1.7-4.5-1.3c-0.1-0.9-0.9-1.6-1.9-1.6H23l-1.8-2.4c-0.3-0.3-0.6-0.6-0.9-0.9c1-0.4,1.8-1.4,1.8-2.6v-1.4H23
						c0.3,0,0.6-0.3,0.6-0.6c0-0.3-0.3-0.6-0.6-0.6h-0.7v-0.9c0-0.9-0.8-1.7-1.7-1.7h-2.8c-0.9,0-1.7,0.8-1.7,1.7v0.9h-0.7
						c-0.3,0-0.6,0.3-0.6,0.6s0.3,0.6,0.6,0.6h1v1.4c0,0.9,0.4,1.7,1.1,2.3c-1.4,0.4-2.3,1.7-2.3,3.2v6.4c0,1.4,0.8,2.6,1.9,3.2v3.8
						h-5.3c-1,0-1.9,0.8-1.9,1.9c0,1,0.8,1.9,1.9,1.9h0.8c0.3,0,0.6-0.3,0.6-0.6s-0.3-0.6-0.6-0.6h-0.8c-0.4,0-0.7-0.3-0.7-0.7
						c0-0.4,0.3-0.7,0.7-0.7h5.9c0.3,0,0.6-0.3,0.6-0.6v-3.9c0.2,0,0.4,0.1,0.7,0.1h1.2v3.8c0,1.1-0.9,2-2,2h-0.8
						c-0.3,0-0.6,0.3-0.6,0.6s0.3,0.6,0.6,0.6H18c1.8,0,3.2-1.4,3.2-3.2v-3.8h2.2v5.2c0,1,0.8,1.9,1.9,1.9s1.9-0.8,1.9-1.9v-6.4
						c0-1.8-1.4-3.2-3.2-3.2h-2.8V26c0.1,0,0.1,0,0.2,0h5.5c0.5,0,0.9-0.2,1.3-0.5c0,1.2,0.5,2.4,1.4,3.3c0.9,0.9,2.2,1.4,3.4,1.4
						c0.2,0,0.3,0,0.5,0v3.1c-0.6,0.1-1.1,0.4-1.6,0.8L28,37.9c-0.2,0.2-0.2,0.6,0,0.8c0.2,0.2,0.6,0.2,0.8,0l3.8-3.8
						c0.7-0.7,1.9-0.7,2.6,0l3.8,3.8c0.1,0.1,0.3,0.2,0.4,0.2c0.2,0,0.3-0.1,0.4-0.2C40.1,38.5,40.1,38.2,39.9,37.9L39.9,37.9z
						 M33.4,21.8c-0.8,0.1-1.6-0.2-2.2-0.8c-0.6-0.6-0.9-1.4-0.8-2.2c0.8-0.1,1.6,0.2,2.2,0.8C33.1,20.2,33.4,21,33.4,21.8
						L33.4,21.8z M35.5,21.8c0.7-0.7,1.7-1,2.7-0.9c0.1,1-0.2,2-0.9,2.7c-0.7,0.7-1.7,1-2.7,0.9c0-0.1,0-0.2,0-0.3v-0.1
						C34.6,23.2,34.9,22.4,35.5,21.8L35.5,21.8z M34,13.2c0.5,0.5,0.8,1.1,0.8,1.9c0,0.7-0.3,1.4-0.8,1.9c-0.5-0.5-0.8-1.1-0.8-1.9
						C33.1,14.4,33.4,13.7,34,13.2L34,13.2z M20.9,16.3c0,0.9-0.8,1.7-1.7,1.7s-1.7-0.8-1.7-1.7v-1.4h3.3V16.3z M17.3,12.7
						c0-0.3,0.2-0.5,0.5-0.5h2.8c0.3,0,0.5,0.2,0.5,0.5v0.9h-3.8L17.3,12.7L17.3,12.7z M23.9,28.7c1.1,0,2,0.9,2,2v6.4
						c0,0.4-0.3,0.7-0.7,0.7s-0.7-0.3-0.7-0.7v-5.7c0-0.3-0.3-0.6-0.6-0.6h-5.1c-1.2,0-2.3-0.9-2.5-2.1H23.9L23.9,28.7z M26.8,24.8
						h-5.3l-1.1-1.3c-0.2-0.2-0.6-0.3-0.8,0c-0.2,0.2-0.3,0.6,0,0.8l0.4,0.5v2.7h-3.6v-5.7c0-1.2,1-2.2,2.2-2.2
						c0.7,0,1.4,0.3,1.8,0.9l1.9,2.7c0.1,0.2,0.3,0.2,0.5,0.2h4.1c0.4,0,0.7,0.3,0.7,0.7C27.5,24.5,27.2,24.8,26.8,24.8L26.8,24.8z
						 M33.3,29c-1.1,0.1-2.2-0.2-3-1.1s-1.2-1.9-1.1-3c1.1-0.1,2.2,0.2,3,1.1c0.7,0.7,1.1,1.6,1.1,2.6v0.1
						C33.4,28.8,33.4,28.9,33.3,29L33.3,29z"/>
				</g>
			</g>
		</g>
		<path class="st1" d="M14.8,37.8c-0.2,0-0.3,0.1-0.4,0.2c-0.1,0.1-0.2,0.3-0.2,0.4s0.1,0.3,0.2,0.4c0.1,0.1,0.3,0.2,0.4,0.2
			s0.3-0.1,0.4-0.2c0.1-0.1,0.2-0.3,0.2-0.4s-0.1-0.3-0.2-0.4S15,37.8,14.8,37.8L14.8,37.8z"/>
	</g>
</g>
</svg>
