<?xml version="1.0" encoding="iso-8859-1"?>
<!-- Generator: Adobe Illustrator 23.0.1, SVG Export Plug-In . SVG Version: 6.00 Build 0)  -->
<svg version="1.1" id="Layer_1" xmlns="http://www.w3.org/2000/svg" xmlns:xlink="http://www.w3.org/1999/xlink" x="0px" y="0px"
	 viewBox="0 0 50 50" style="enable-background:new 0 0 50 50;" xml:space="preserve">
<g>
	<g>
		<g>
			<g>
				<g>
					<defs>
						<rect id="SVGID_1_" x="17.5" y="17.5" width="15" height="15"/>
					</defs>
					<clipPath id="SVGID_2_">
						<use xlink:href="#SVGID_1_"  style="overflow:visible;"/>
					</clipPath>
					<path style="clip-path:url(#SVGID_2_);fill:#2C8E95;" d="M29.52,32.5c-0.065,0-0.13-0.013-0.19-0.04L25,30.533l-4.33,1.928
						c-0.16,0.071-0.347,0.046-0.483-0.063c-0.137-0.11-0.201-0.287-0.167-0.459l0.955-4.784l-3.338-3.344
						c-0.122-0.122-0.167-0.302-0.117-0.468s0.187-0.29,0.357-0.324l4.785-0.959l1.91-4.305c0.151-0.339,0.706-0.339,0.857,0
						l1.91,4.305l4.785,0.959c0.169,0.034,0.307,0.159,0.357,0.324c0.05,0.166,0.005,0.346-0.117,0.468l-3.338,3.344l0.955,4.784
						c0.034,0.172-0.03,0.349-0.167,0.459C29.728,32.465,29.624,32.5,29.52,32.5L29.52,32.5z M25,29.549
						c0.065,0,0.13,0.013,0.19,0.04l3.692,1.644l-0.827-4.141c-0.031-0.154,0.017-0.313,0.128-0.424l2.896-2.901l-4.163-0.834
						c-0.149-0.03-0.275-0.13-0.336-0.27L25,19.102l-1.581,3.562c-0.062,0.139-0.187,0.24-0.336,0.27l-4.163,0.834l2.896,2.901
						c0.111,0.111,0.159,0.27,0.128,0.424l-0.827,4.141l3.692-1.644C24.87,29.562,24.935,29.549,25,29.549L25,29.549z"/>
				</g>
			</g>
		</g>
	</g>
</g>
</svg>
