<?xml version="1.0" encoding="iso-8859-1"?>
<!-- Generator: Adobe Illustrator 23.0.1, SVG Export Plug-In . SVG Version: 6.00 Build 0)  -->
<svg version="1.1" id="Layer_1" xmlns="http://www.w3.org/2000/svg" xmlns:xlink="http://www.w3.org/1999/xlink" x="0px" y="0px"
	 viewBox="0 0 50 50" style="enable-background:new 0 0 50 50;" xml:space="preserve">
<g>
	<g>
		<g>
			<path style="fill:#2C8E95;" d="M32.352,17.539c-0.091-0.052-0.204-0.052-0.294,0.002l-5.369,3.174
				c-0.139,0.082-0.185,0.262-0.103,0.401c0.082,0.139,0.262,0.185,0.401,0.103l3.852-2.278l-7.175,7.444l-3.568-1.092l4.657-2.754
				c0.139-0.082,0.185-0.262,0.103-0.401c-0.082-0.139-0.262-0.185-0.401-0.103l-5.229,3.092c-0.1,0.059-0.155,0.171-0.142,0.287
				s0.094,0.211,0.205,0.245l4.262,1.304l1.88,3.422c0.002,0.003,0.004,0.007,0.006,0.009c0.031,0.052,0.078,0.095,0.137,0.119
				c0.036,0.015,0.075,0.023,0.113,0.023c0.075,0,0.149-0.029,0.205-0.083l2.162-2.113l4.066,1.244
				c0.028,0.008,0.057,0.013,0.085,0.013c0.062,0,0.123-0.02,0.174-0.058c0.076-0.054,0.12-0.142,0.12-0.235V17.793
				C32.5,17.688,32.443,17.591,32.352,17.539z M29.792,20.873l-4.345,6.273c-0.034,0.049-0.052,0.107-0.052,0.167v1.792
				l-1.284-2.337L29.792,20.873z M25.981,29.55v-1.842l1.435,0.439L25.981,29.55z M26.157,27.149l5.757-8.31V28.91L26.157,27.149z"
				/>
			<path style="fill:#2C8E95;" d="M22.317,27.683c-0.114-0.115-0.3-0.115-0.414,0l-2.735,2.735c-0.114,0.115-0.114,0.3,0,0.414
				c0.057,0.057,0.132,0.086,0.207,0.086s0.15-0.028,0.207-0.086l2.735-2.735C22.431,27.983,22.431,27.797,22.317,27.683z"/>
			<path style="fill:#2C8E95;" d="M18.259,31.326L17.586,32c-0.114,0.114-0.114,0.3,0,0.414c0.057,0.057,0.132,0.086,0.207,0.086
				s0.15-0.028,0.207-0.086l0.674-0.674c0.114-0.115,0.114-0.3,0-0.414C18.559,31.211,18.374,31.211,18.259,31.326z"/>
			<path style="fill:#2C8E95;" d="M21.472,31.897c-0.078,0-0.153,0.031-0.207,0.086c-0.054,0.054-0.086,0.13-0.086,0.207
				s0.031,0.153,0.086,0.207c0.054,0.055,0.13,0.086,0.207,0.086c0.077,0,0.152-0.032,0.207-0.086
				c0.055-0.054,0.086-0.13,0.086-0.207s-0.031-0.153-0.086-0.207C21.624,31.928,21.549,31.897,21.472,31.897z"/>
			<path style="fill:#2C8E95;" d="M23.444,29.803l-1.448,1.448c-0.114,0.114-0.114,0.3,0,0.414c0.057,0.057,0.132,0.086,0.207,0.086
				s0.15-0.028,0.207-0.086l1.448-1.448c0.115-0.114,0.115-0.3,0-0.414C23.744,29.688,23.559,29.688,23.444,29.803z"/>
			<path style="fill:#2C8E95;" d="M28.444,29.691l-1.452,1.452c-0.114,0.115-0.114,0.3,0,0.414c0.057,0.057,0.132,0.086,0.207,0.086
				s0.15-0.028,0.207-0.086l1.452-1.452c0.115-0.115,0.115-0.3,0-0.414C28.744,29.577,28.558,29.577,28.444,29.691z"/>
			<path style="fill:#2C8E95;" d="M25.598,21.994c0.077,0,0.152-0.031,0.207-0.086c0.054-0.055,0.086-0.13,0.086-0.207
				c0-0.077-0.031-0.153-0.086-0.207s-0.13-0.086-0.207-0.086s-0.152,0.031-0.207,0.086c-0.055,0.054-0.086,0.13-0.086,0.207
				c0,0.077,0.031,0.152,0.086,0.207S25.521,21.994,25.598,21.994z"/>
		</g>
	</g>
</g>
</svg>
